<svg xmlns="http://www.w3.org/2000/svg" width="68" height="71" viewBox="0 0 68 71" fill="none">
  <path opacity="0.6" d="M57.9496 17.7201C50.1575 11.6318 42.6917 11.8029 42.6917 11.8029L41.9288 12.7132C51.1924 15.6149 55.4975 19.882 55.4975 19.882C42.2436 12.263 25.3619 12.3177 11.5763 19.882C11.5763 19.882 16.0446 15.387 25.8536 12.4853L25.3089 11.8022C25.3089 11.8022 17.8976 11.6318 10.0511 17.7194C10.0511 17.7194 2.20386 32.4554 2.20386 50.6059C2.20386 50.6059 6.78162 58.7993 18.8244 59.1976C18.8244 59.1976 20.8406 56.6941 22.4753 54.5322C15.555 52.3702 12.939 47.8752 12.939 47.8752C17.2869 50.7159 21.6831 52.4938 27.1619 53.6219C36.0753 55.5375 47.1627 53.568 55.4438 47.8752C55.4438 47.8752 52.719 52.4838 45.5804 54.589C47.2151 56.6941 49.1769 59.1408 49.1769 59.1408C61.2197 58.7425 65.7968 50.5491 65.7968 50.6066C65.7961 32.4561 57.9496 17.7201 57.9496 17.7201ZM23.8374 45.3149C20.7855 45.3149 18.2791 42.5268 18.2791 39.0563C18.5021 30.7443 29.2284 30.7699 29.3957 39.0563C29.3957 42.5268 26.9429 45.3149 23.8374 45.3149ZM43.7267 45.3149C40.6749 45.3149 38.1684 42.5268 38.1684 39.0563C38.4132 30.7607 49.0055 30.7571 49.285 39.0563C49.285 42.5268 46.8329 45.3149 43.7267 45.3149Z" fill="#6665D2"/>
</svg>